<?xml version="1.0" standalone="no"?>
<!DOCTYPE svg PUBLIC "-//W3C//DTD SVG 20010904//EN"
 "http://www.w3.org/TR/2001/REC-SVG-20010904/DTD/svg10.dtd">
<svg version="1.0" xmlns="http://www.w3.org/2000/svg"
 width="300.000000pt" height="100.000000pt" viewBox="0 0 300.000000 100.000000"
 preserveAspectRatio="xMidYMid meet">

<g transform="translate(0.000000,100.000000) scale(0.100000,-0.100000)"
fill="#000000" stroke="none">
<path d="M1316 964 c-271 -58 -438 -320 -371 -579 67 -256 329 -415 580 -350
137 36 258 136 317 261 25 55 32 82 36 159 8 156 -34 271 -138 376 -68 69
-150 112 -253 133 -89 19 -82 19 -171 0z m214 -161 c219 -98 271 -390 100
-560 -49 -50 -106 -79 -183 -94 -105 -21 -234 28 -311 118 -68 80 -95 218 -62
325 29 97 111 183 208 219 68 25 182 21 248 -8z"/>
<path d="M1320 712 c-94 -37 -151 -82 -105 -82 13 0 15 -22 15 -138 0 -125 -2
-141 -20 -162 -11 -13 -20 -27 -20 -32 0 -4 100 -8 221 -8 240 0 230 -3 182
48 -9 9 -13 54 -13 147 0 117 2 135 18 144 15 9 14 12 -11 33 -15 12 -62 36
-105 53 l-77 31 -85 -34z m144 -12 c7 -7 -11 -10 -57 -10 -71 0 -81 5 -44 20
26 11 86 5 101 -10z m-156 -213 c2 -129 2 -137 -17 -137 -27 0 -31 18 -31 140
0 120 5 142 29 138 14 -3 16 -23 19 -141z m80 5 c2 -115 0 -133 -14 -139 -27
-10 -34 17 -34 134 0 123 5 145 29 141 14 -3 16 -23 19 -136z m76 122 c8 -20
8 -228 0 -248 -3 -9 -15 -16 -25 -16 -18 0 -19 9 -19 133 0 74 3 137 7 140 11
12 31 7 37 -9z m80 -6 c8 -30 8 -222 0 -242 -3 -9 -15 -16 -25 -16 -18 0 -19
9 -19 133 0 74 3 137 7 140 13 14 31 6 37 -15z"/>
</g>
</svg>
